<?xml version="1.0" standalone="no"?>
<!DOCTYPE svg PUBLIC "-//W3C//DTD SVG 20010904//EN"
 "http://www.w3.org/TR/2001/REC-SVG-20010904/DTD/svg10.dtd">
<svg version="1.0" xmlns="http://www.w3.org/2000/svg"
 width="1024.000000pt" height="1024.000000pt" viewBox="0 0 1024.000000 1024.000000"
 preserveAspectRatio="xMidYMid meet">
<metadata>
Created by potrace 1.14, written by Peter Selinger 2001-2017
</metadata>
<g transform="translate(0.000000,1024.000000) scale(0.100000,-0.100000)"
fill="#000000" stroke="none">
<path d="M1680 9405 l0 -835 -840 0 -840 0 0 -30 0 -30 840 0 840 0 0 -289 0
-290 -94 -123 c-110 -144 -238 -339 -327 -493 -66 -116 -219 -425 -219 -444 0
-8 -149 -11 -520 -11 l-520 0 0 -30 0 -30 504 0 503 0 -39 -102 c-120 -318
-209 -673 -252 -1013 -18 -142 -36 -373 -36 -467 l0 -68 -340 0 -340 0 0 -30
0 -30 340 0 340 0 0 -67 c0 -95 18 -326 36 -468 43 -340 142 -732 258 -1028
l34 -87 -504 0 -504 0 0 -30 0 -30 520 0 c409 0 520 -3 520 -12 0 -19 159
-339 225 -453 84 -147 208 -333 318 -478 l97 -128 0 -289 0 -290 -840 0 -840
0 0 -30 0 -30 840 0 840 0 0 -835 0 -835 30 0 30 0 0 835 0 835 290 0 291 0
118 -90 c274 -206 619 -409 899 -528 l52 -23 0 -514 0 -515 30 0 30 0 0 500
c0 275 2 500 5 500 2 0 59 -21 127 -46 306 -113 642 -196 973 -238 145 -19
373 -36 473 -36 l72 0 0 -340 0 -340 30 0 30 0 0 340 0 340 63 0 c89 0 323 18
460 36 372 47 784 155 1110 289 16 7 17 -21 17 -499 l0 -506 30 0 30 0 0 518
0 517 156 74 c276 132 510 274 761 462 l132 99 300 0 301 0 0 -835 0 -835 30
0 30 0 0 835 0 835 830 0 830 0 0 30 0 30 -830 0 -830 0 0 301 0 302 94 126
c111 150 220 315 307 466 66 116 219 425 219 444 0 8 149 11 520 11 l520 0 0
30 0 30 -504 0 -504 0 49 130 c117 310 200 649 243 985 18 142 36 373 36 468
l0 67 340 0 340 0 0 30 0 30 -340 0 -340 0 0 68 c0 94 -18 325 -36 467 -43
340 -142 732 -258 1028 l-34 87 504 0 504 0 0 30 0 30 -520 0 c-409 0 -520 3
-520 13 0 18 -158 337 -224 452 -77 133 -226 356 -320 480 l-76 99 0 303 0
303 830 0 830 0 0 30 0 30 -830 0 -830 0 0 835 0 835 -30 0 -30 0 0 -835 0
-835 -300 0 -301 0 -118 90 c-245 184 -503 341 -776 471 l-155 74 0 517 0 518
-30 0 -30 0 0 -506 c0 -478 -1 -506 -17 -499 -454 180 -886 279 -1368 315 -77
5 -168 10 -202 10 l-63 0 0 340 0 340 -30 0 -30 0 0 -340 0 -340 -72 0 c-99 0
-328 -17 -471 -36 -365 -46 -719 -137 -1089 -279 -17 -7 -18 21 -18 494 l0
501 -30 0 -30 0 0 -515 0 -515 -42 -17 c-72 -28 -327 -157 -433 -218 -146 -84
-312 -194 -462 -306 l-132 -99 -290 0 -291 0 0 835 0 835 -30 0 -30 0 0 -835z
m3420 -400 l0 -435 -825 0 -825 0 0 269 0 269 163 60 c451 168 933 261 1400
270 l87 2 0 -435z m480 409 c387 -41 749 -129 1103 -266 l127 -49 0 -265 0
-264 -825 0 -825 0 0 436 0 437 143 -7 c78 -4 203 -14 277 -22z m-2190 -589
l0 -255 -432 0 -433 1 30 25 c54 45 308 210 430 279 93 53 389 204 403 205 1
0 2 -115 2 -255z m3656 162 c204 -103 391 -215 567 -339 53 -39 97 -72 97 -74
0 -2 -189 -4 -420 -4 l-420 0 0 250 0 250 24 -9 c12 -5 81 -39 152 -74z
m-4884 -556 c-134 -122 -209 -196 -320 -316 l-102 -110 0 253 0 252 255 0 255
0 -88 -79z m1228 -129 l0 -209 -83 -51 c-417 -254 -835 -670 -1091 -1086 l-60
-96 -208 0 -208 0 0 478 0 477 119 135 c136 156 354 371 489 483 l93 77 474 0
475 0 0 -208z m1006 182 c-280 -62 -514 -144 -773 -269 l-173 -84 0 190 0 189
528 -1 527 -1 -109 -24z m2414 -170 c0 -108 -3 -194 -7 -192 -5 2 -62 31 -128
64 -273 140 -574 245 -895 312 -31 7 125 10 493 11 l537 1 0 -196z m1082 119
c123 -102 444 -423 546 -547 l82 -99 0 -464 0 -463 -218 0 -219 0 -51 83
c-250 410 -640 805 -1058 1074 l-104 66 0 214 0 213 465 0 464 0 93 -77z m628
-189 l0 -267 -42 49 c-122 139 -276 294 -440 442 l-48 42 265 0 265 0 0 -266z
m-3420 -594 l0 -790 -825 0 -825 0 2 566 3 567 120 63 c371 196 794 325 1191
364 155 15 180 16 262 18 l72 2 0 -790z m385 769 c402 -43 805 -167 1180 -362
l140 -74 3 -561 2 -562 -825 0 -825 0 0 791 0 792 118 -7 c64 -4 158 -11 207
-17z m-2098 -1556 c-2 -2 -248 -2 -546 -1 l-542 3 81 119 c126 187 220 298
414 491 184 183 312 290 491 409 l100 67 3 -542 c1 -298 1 -544 -1 -546z
m3794 857 c135 -107 442 -416 545 -550 67 -87 177 -245 208 -297 6 -10 -103
-13 -528 -13 l-536 0 0 540 0 540 104 -69 c56 -38 150 -106 207 -151z m-5501
-425 l0 -435 -256 0 -255 0 7 23 c20 65 166 340 272 512 50 82 224 334 230
335 1 0 2 -196 2 -435z m7034 220 c51 -77 124 -194 161 -260 67 -117 195 -372
195 -387 0 -5 -110 -8 -245 -8 l-245 0 0 423 0 422 20 -25 c11 -14 63 -88 114
-165z m-7034 -1540 l0 -825 -441 0 -442 0 7 148 c24 506 141 1050 315 1455
l20 47 271 0 270 0 0 -825z m381 708 c-140 -280 -243 -577 -309 -893 -7 -31
-10 122 -11 483 l-1 527 190 0 190 0 -59 -117z m1329 -708 l0 -825 -791 0
-792 0 7 128 c17 322 64 582 157 869 70 217 170 446 266 611 l25 42 564 0 564
0 0 -825z m1260 800 c-463 -128 -870 -471 -1079 -909 -42 -86 -97 -232 -114
-301 -2 -11 -5 262 -6 608 l-1 627 643 -1 642 0 -85 -24z m2159 -642 l-1 -668
-28 105 c-158 583 -612 1041 -1195 1206 l-80 23 653 0 652 1 -1 -667z m1237
542 c229 -434 353 -887 380 -1397 l7 -128 -782 0 -781 0 0 825 0 825 556 -2
557 -3 63 -120z m473 -467 l-1 -593 -19 110 c-56 322 -164 645 -313 944 l-66
131 200 0 200 0 -1 -592z m619 502 c175 -444 275 -918 298 -1412 l7 -148 -432
0 -431 0 0 825 0 825 262 -2 262 -3 34 -85z m-4038 -775 l0 -785 -791 0 -791
0 7 88 c52 655 488 1207 1110 1405 135 43 291 71 418 75 l47 2 0 -785z m329
753 c483 -91 906 -416 1127 -866 86 -176 143 -384 159 -584 l7 -88 -781 0
-781 0 0 786 0 786 83 -7 c45 -4 129 -16 186 -27z m-3749 -2423 l0 -825 -272
2 -272 3 -34 85 c-175 445 -275 917 -298 1413 l-7 147 442 0 441 0 0 -825z
m1710 0 l0 -825 -558 0 -558 0 -46 83 c-145 260 -253 536 -322 821 -53 217
-78 385 -92 629 l-7 117 792 0 791 0 0 -825z m1710 39 l0 -787 -92 7 c-796 61
-1419 683 -1483 1479 l-7 87 791 0 791 0 0 -786z m1615 699 c-63 -792 -680
-1411 -1472 -1478 l-83 -7 0 786 0 786 781 0 781 0 -7 -87z m1711 -30 c-30
-512 -149 -948 -379 -1388 l-74 -140 -551 -3 -552 -2 0 825 0 825 781 0 782 0
-7 -117z m1010 -30 c-24 -507 -141 -1051 -315 -1456 l-20 -47 -261 0 -260 0 0
825 0 825 431 0 432 0 -7 -147z m-2626 -838 l0 -665 -652 1 -653 0 85 24 c236
65 469 193 669 366 251 217 462 567 531 882 7 31 15 57 17 57 1 0 3 -299 3
-665z m-3281 360 c194 -480 620 -858 1126 -1001 l80 -23 -642 0 -643 -1 1 628
0 627 23 -75 c12 -41 37 -111 55 -155z m4991 -425 l0 -600 -206 0 c-113 0
-204 3 -202 8 2 4 31 61 64 127 153 300 273 656 322 957 9 60 18 108 20 108 1
0 2 -270 2 -600z m-6694 132 c65 -227 133 -390 302 -724 2 -5 -84 -8 -192 -8
l-196 0 1 538 1 537 24 -109 c13 -59 40 -165 60 -234z m-146 -1229 l0 -438
-51 70 c-78 106 -192 282 -266 413 -65 114 -193 370 -193 385 0 4 115 7 255 7
l255 0 0 -437z m535 361 c260 -417 668 -824 1079 -1078 l96 -60 0 -218 0 -218
-475 0 -474 0 -93 77 c-137 115 -355 330 -489 483 l-119 135 0 478 0 477 214
0 214 0 47 -76z m1175 -460 c0 -425 -3 -534 -12 -528 -173 102 -387 272 -571
453 -192 188 -340 367 -470 569 l-27 42 540 0 540 0 0 -536z m1710 -245 l0
-782 -127 7 c-508 27 -953 147 -1388 374 l-130 68 -3 557 -2 557 825 0 825 0
0 -781z m1710 233 l0 -548 -82 -46 c-261 -145 -537 -253 -822 -322 -217 -53
-385 -78 -628 -92 l-118 -7 0 782 0 781 825 0 825 0 0 -548z m1051 444 c-115
-172 -225 -302 -405 -482 -180 -180 -310 -290 -482 -405 l-104 -69 0 530 0
530 530 0 530 0 -69 -104z m659 -359 l0 -464 -82 -99 c-102 -124 -423 -445
-546 -547 l-93 -77 -464 0 -465 0 0 224 0 224 76 47 c410 256 795 638 1061
1051 l66 104 224 0 223 0 0 -463z m544 441 c-11 -36 -136 -284 -191 -378 -92
-158 -239 -383 -285 -435 -4 -5 -8 181 -8 413 l0 422 246 0 245 0 -7 -22z
m-544 -1363 l0 -265 -265 0 -265 0 92 82 c114 102 300 290 376 380 31 37 58
68 60 68 1 0 2 -119 2 -265z m-6511 -43 c36 -35 105 -99 153 -143 l88 -79
-255 0 -255 0 0 253 0 252 102 -110 c56 -60 131 -138 167 -173z m4801 -17 l0
-205 -602 1 -603 1 110 19 c332 58 687 178 970 328 61 32 113 59 118 60 4 0 7
-91 7 -204z m-3030 37 c219 -93 514 -180 745 -221 l110 -19 -592 -1 -593 -1 0
200 0 200 118 -59 c64 -32 160 -77 212 -99z m-390 -556 l0 -255 -37 16 c-124
51 -369 183 -543 293 -91 57 -280 189 -280 196 0 2 194 4 430 4 l430 0 0 -254z
m1710 -182 l0 -437 -152 7 c-483 22 -928 112 -1365 278 l-133 50 0 269 0 269
825 0 825 0 0 -436z m1710 172 l0 -265 -107 -41 c-452 -176 -906 -272 -1400
-296 l-143 -7 0 437 0 436 825 0 825 0 0 -264z m875 238 c-137 -113 -584 -377
-777 -457 l-38 -16 0 250 0 249 423 0 422 -1 -30 -25z"/>
</g>
</svg>
